<svg width="33" height="25" viewBox="0 0 33 25" fill="none" xmlns="http://www.w3.org/2000/svg">
<path d="M31.7344 1.5625H9.49219C9.32461 1.5625 9.1875 1.68555 9.1875 1.83594V3.75C9.1875 3.90039 9.32461 4.02344 9.49219 4.02344H31.7344C31.902 4.02344 32.0391 3.90039 32.0391 3.75V1.83594C32.0391 1.68555 31.902 1.5625 31.7344 1.5625ZM31.7344 11.2695H9.49219C9.32461 11.2695 9.1875 11.3926 9.1875 11.543V13.457C9.1875 13.6074 9.32461 13.7305 9.49219 13.7305H31.7344C31.902 13.7305 32.0391 13.6074 32.0391 13.457V11.543C32.0391 11.3926 31.902 11.2695 31.7344 11.2695ZM31.7344 20.9766H9.49219C9.32461 20.9766 9.1875 21.0996 9.1875 21.25V23.1641C9.1875 23.3145 9.32461 23.4375 9.49219 23.4375H31.7344C31.902 23.4375 32.0391 23.3145 32.0391 23.1641V21.25C32.0391 21.0996 31.902 20.9766 31.7344 20.9766ZM0.960938 2.79297C0.960937 3.04433 1.0161 3.29322 1.12329 3.52545C1.23047 3.75767 1.38757 3.96868 1.58562 4.14642C1.78367 4.32415 2.01879 4.46514 2.27756 4.56133C2.53632 4.65752 2.81367 4.70703 3.09375 4.70703C3.37383 4.70703 3.65118 4.65752 3.90994 4.56133C4.16871 4.46514 4.40383 4.32415 4.60188 4.14642C4.79993 3.96868 4.95703 3.75767 5.06421 3.52545C5.1714 3.29322 5.22656 3.04433 5.22656 2.79297C5.22656 2.54161 5.1714 2.29271 5.06421 2.06049C4.95703 1.82826 4.79993 1.61726 4.60188 1.43952C4.40383 1.26179 4.16871 1.1208 3.90994 1.02461C3.65118 0.928415 3.37383 0.878906 3.09375 0.878906C2.81367 0.878906 2.53632 0.928415 2.27756 1.02461C2.01879 1.1208 1.78367 1.26179 1.58562 1.43952C1.38757 1.61726 1.23047 1.82826 1.12329 2.06049C1.0161 2.29271 0.960937 2.54161 0.960938 2.79297ZM0.960938 12.5C0.960937 12.7514 1.0161 13.0003 1.12329 13.2325C1.23047 13.4647 1.38757 13.6757 1.58562 13.8534C1.78367 14.0312 2.01879 14.1722 2.27756 14.2684C2.53632 14.3646 2.81367 14.4141 3.09375 14.4141C3.37383 14.4141 3.65118 14.3646 3.90994 14.2684C4.16871 14.1722 4.40383 14.0312 4.60188 13.8534C4.79993 13.6757 4.95703 13.4647 5.06421 13.2325C5.1714 13.0003 5.22656 12.7514 5.22656 12.5C5.22656 12.2486 5.1714 11.9997 5.06421 11.7675C4.95703 11.5353 4.79993 11.3243 4.60188 11.1466C4.40383 10.9688 4.16871 10.8278 3.90994 10.7316C3.65118 10.6354 3.37383 10.5859 3.09375 10.5859C2.81367 10.5859 2.53632 10.6354 2.27756 10.7316C2.01879 10.8278 1.78367 10.9688 1.58562 11.1466C1.38757 11.3243 1.23047 11.5353 1.12329 11.7675C1.0161 11.9997 0.960937 12.2486 0.960938 12.5ZM0.960938 22.207C0.960937 22.4584 1.0161 22.7073 1.12329 22.9395C1.23047 23.1717 1.38757 23.3827 1.58562 23.5605C1.78367 23.7382 2.01879 23.8792 2.27756 23.9754C2.53632 24.0716 2.81367 24.1211 3.09375 24.1211C3.37383 24.1211 3.65118 24.0716 3.90994 23.9754C4.16871 23.8792 4.40383 23.7382 4.60188 23.5605C4.79993 23.3827 4.95703 23.1717 5.06421 22.9395C5.1714 22.7073 5.22656 22.4584 5.22656 22.207C5.22656 21.9557 5.1714 21.7068 5.06421 21.4746C4.95703 21.2423 4.79993 21.0313 4.60188 20.8536C4.40383 20.6758 4.16871 20.5349 3.90994 20.4387C3.65118 20.3425 3.37383 20.293 3.09375 20.293C2.81367 20.293 2.53632 20.3425 2.27756 20.4387C2.01879 20.5349 1.78367 20.6758 1.58562 20.8536C1.38757 21.0313 1.23047 21.2423 1.12329 21.4746C1.0161 21.7068 0.960937 21.9557 0.960938 22.207Z" fill="#AECFEE"/>
</svg>
