<svg width="28" height="32" viewBox="0 0 28 32" fill="none" xmlns="http://www.w3.org/2000/svg">
<path d="M4.20572 22.1987L4.20562 22.1986C4.05119 22.4542 4.08438 22.6419 4.13844 22.7551L4.13962 22.7575C4.17043 22.823 4.21807 22.8826 4.28035 22.925C4.3391 22.965 4.42528 23 4.55555 23H23.3148C23.3799 22.9965 23.4489 22.9737 23.5155 22.9257C23.5852 22.8756 23.6506 22.7986 23.6977 22.6959L23.701 22.6886L23.7011 22.6887C23.8039 22.4738 23.7679 22.342 23.7165 22.2625C23.7163 22.2624 23.7162 22.2622 23.7161 22.262L23.6924 22.2259L23.6885 22.2199L23.6848 22.2139L21.4533 18.5839L21.8792 18.322L21.4533 18.5838C21.2465 18.2475 21.1392 17.8521 21.1389 17.4524V17.452V12.5187C21.132 11.4548 20.9433 10.4045 20.5852 9.42905C20.2285 8.45763 19.7117 7.582 19.0675 6.85076C17.6401 5.406 15.8379 4.5 13.8744 4.5C9.86401 4.5 6.60999 8.1219 6.60999 12.5155V17.4504C6.60999 17.4504 6.60999 17.4505 6.60999 17.4505C6.61005 17.8326 6.51232 18.211 6.32314 18.5379L4.20572 22.1987ZM4.20572 22.1987L4.21127 22.189L4.22341 22.1679L4.22419 22.1665L6.32305 18.538L4.20572 22.1987ZM21.5623 3.97342L21.5711 3.98331C22.5652 5.09567 23.354 6.42385 23.8941 7.8878C24.4342 9.35175 24.7157 10.9243 24.7232 12.5131L24.7232 12.5155L24.7232 16.8291L26.627 19.9257C27.6106 21.4482 27.4962 23.2645 26.8545 24.5906L21.5623 3.97342ZM21.5623 3.97342L21.5529 3.96402M21.5623 3.97342L21.5529 3.96402M21.5529 3.96402L21.5169 3.92777C21.5164 3.92731 21.5159 3.92684 21.5155 3.92638C19.5347 1.90313 16.8868 0.5 13.8757 0.5C7.91152 0.5 3.02571 5.87596 3.02571 12.5155M21.5529 3.96402L3.02571 12.5155M3.02571 12.5155V16.8603L1.22113 19.9795C0.291045 21.5365 0.318027 23.2804 0.974665 24.6393C1.63035 25.9962 2.93493 27 4.55555 27H23.3251C24.9456 27 26.2195 25.9043 26.8544 24.5908L3.02571 12.5155ZM8.76109 28.113C8.43475 28.4918 8.26146 28.9917 8.26146 29.5C8.26146 30.0083 8.43475 30.5082 8.76109 30.887C9.08944 31.2682 9.55218 31.5 10.0536 31.5H17.8064C18.3078 31.5 18.7706 31.2682 19.0989 30.887C19.4253 30.5082 19.5986 30.0083 19.5986 29.5C19.5986 28.9917 19.4253 28.4918 19.0989 28.113C18.7706 27.7318 18.3078 27.5 17.8064 27.5H10.0536C9.55218 27.5 9.08944 27.7318 8.76109 28.113Z" fill="white" fill-opacity="0.54" stroke="#4E96D9"/>
</svg>
