<svg width="25" height="30" viewBox="0 0 25 30" fill="none" xmlns="http://www.w3.org/2000/svg">
<g style="mix-blend-mode:screen">
<path d="M18.958 1.5V1.875H19.333H22.0949C23.3823 1.875 24.4817 3.0228 24.4817 4.5V27C24.4817 28.4772 23.3823 29.625 22.0949 29.625H2.76186C1.4744 29.625 0.375 28.4772 0.375 27V4.5C0.375 3.0228 1.4744 1.875 2.76186 1.875H5.52372H5.89872V1.5C5.89872 1.19208 6.01162 0.90238 6.20407 0.693329C6.39557 0.485318 6.64834 0.375 6.90465 0.375H17.9521C18.2084 0.375 18.4612 0.485318 18.6527 0.693328C18.8451 0.902379 18.958 1.19208 18.958 1.5ZM2.76186 4.125H2.38686V4.5V27V27.375H2.76186H22.0949H22.4699V27V4.5V4.125H22.0949H19.333H18.958V4.5V7.125H5.89872V4.5V4.125H5.52372H2.76186Z" fill="white" stroke="white" stroke-width="0.75"/>
<path d="M10.6799 17.7176L11.0478 18.1172L11.4156 17.7176L16.2856 12.4277L17.5587 13.8105L11.0478 20.8827L7.29876 16.8105L8.57177 15.4277L10.6799 17.7176Z" fill="white" stroke="white"/>
</g>
</svg>
